<!-- <svg xmlns="http://www.w3.org/2000/svg" viewBox="0 0 841.9 595.3"><g fill="#61DAFB"><path d="M666.3 296.5c0-32.5-40.7-63.3-103.1-82.4 14.4-63.6 8-114.2-20.2-130.4-6.5-3.8-14.1-5.6-22.4-5.6v22.3c4.6 0 8.3.9 11.4 2.6 13.6 7.8 19.5 37.5 14.9 75.7-1.1 9.4-2.9 19.3-5.1 29.4-19.6-4.8-41-8.5-63.5-10.9-13.5-18.5-27.5-35.3-41.6-50 32.6-30.3 63.2-46.9 84-46.9V78c-27.5 0-63.5 19.6-99.9 53.6-36.4-33.8-72.4-53.2-99.9-53.2v22.3c20.7 0 51.4 16.5 84 46.6-14 14.7-28 31.4-41.3 49.9-22.6 2.4-44 6.1-63.6 11-2.3-10-4-19.7-5.2-29-4.7-38.2 1.1-67.9 14.6-75.8 3-1.8 6.9-2.6 11.5-2.6V78.5c-8.4 0-16 1.8-22.6 5.6-28.1 16.2-34.4 66.7-19.9 130.1-62.2 19.2-102.7 49.9-102.7 82.3 0 32.5 40.7 63.3 103.1 82.4-14.4 63.6-8 114.2 20.2 130.4 6.5 3.8 14.1 5.6 22.5 5.6 27.5 0 63.5-19.6 99.9-53.6 36.4 33.8 72.4 53.2 99.9 53.2 8.4 0 16-1.8 22.6-5.6 28.1-16.2 34.4-66.7 19.9-130.1 62-19.1 102.5-49.9 102.5-82.3zm-130.2-66.7c-3.7 12.9-8.3 26.2-13.5 39.5-4.1-8-8.4-16-13.1-24-4.6-8-9.5-15.8-14.4-23.4 14.2 2.1 27.9 4.7 41 7.9zm-45.8 106.5c-7.8 13.5-15.8 26.3-24.1 38.2-14.9 1.3-30 2-45.2 2-15.1 0-30.2-.7-45-1.9-8.3-11.9-16.4-24.6-24.2-38-7.6-13.1-14.5-26.4-20.8-39.8 6.2-13.4 13.2-26.8 20.7-39.9 7.8-13.5 15.8-26.3 24.1-38.2 14.9-1.3 30-2 45.2-2 15.1 0 30.2.7 45 1.9 8.3 11.9 16.4 24.6 24.2 38 7.6 13.1 14.5 26.4 20.8 39.8-6.3 13.4-13.2 26.8-20.7 39.9zm32.3-13c5.4 13.4 10 26.8 13.8 39.8-13.1 3.2-26.9 5.9-41.2 8 4.9-7.7 9.8-15.6 14.4-23.7 4.6-8 8.9-16.1 13-24.1zM421.2 430c-9.3-9.6-18.6-20.3-27.8-32 9 .4 18.2.7 27.5.7 9.4 0 18.7-.2 27.8-.7-9 11.7-18.3 22.4-27.5 32zm-74.4-58.9c-14.2-2.1-27.9-4.7-41-7.9 3.7-12.9 8.3-26.2 13.5-39.5 4.1 8 8.4 16 13.1 24 4.7 8 9.5 15.8 14.4 23.4zM420.7 163c9.3 9.6 18.6 20.3 27.8 32-9-.4-18.2-.7-27.5-.7-9.4 0-18.7.2-27.8.7 9-11.7 18.3-22.4 27.5-32zm-74 58.9c-4.9 7.7-9.8 15.6-14.4 23.7-4.6 8-8.9 16-13 24-5.4-13.4-10-26.8-13.8-39.8 13.1-3.1 26.9-5.8 41.2-7.9zm-90.5 125.2c-35.4-15.1-58.3-34.9-58.3-50.6 0-15.7 22.9-35.6 58.3-50.6 8.6-3.7 18-7 27.7-10.1 5.7 19.6 13.2 40 22.5 60.9-9.2 20.8-16.6 41.1-22.2 60.6-9.9-3.1-19.3-6.5-28-10.2zM310 490c-13.6-7.8-19.5-37.5-14.9-75.7 1.1-9.4 2.9-19.3 5.1-29.4 19.6 4.8 41 8.5 63.5 10.9 13.5 18.5 27.5 35.3 41.6 50-32.6 30.3-63.2 46.9-84 46.9-4.5-.1-8.3-1-11.3-2.7zm237.2-76.2c4.7 38.2-1.1 67.9-14.6 75.8-3 1.8-6.9 2.6-11.5 2.6-20.7 0-51.4-16.5-84-46.6 14-14.7 28-31.4 41.3-49.9 22.6-2.4 44-6.1 63.6-11 2.3 10.1 4.1 19.8 5.2 29.1zm38.5-66.7c-8.6 3.7-18 7-27.7 10.1-5.7-19.6-13.2-40-22.5-60.9 9.2-20.8 16.6-41.1 22.2-60.6 9.9 3.1 19.3 6.5 28.1 10.2 35.4 15.1 58.3 34.9 58.3 50.6-.1 15.7-23 35.6-58.4 50.6zM320.8 78.4z"/><circle cx="420.9" cy="296.5" r="45.7"/><path d="M520.5 78.1z"/></g></svg> -->

<svg  xmlns="http://www.w3.org/2000/svg" viewBox="0 0 841.9 595.3">
  <g fill="#61DAFB"> <path d="M0 0 C91.08 0 182.16 0 276 0 C276 47.85 276 95.7 276 145 C184.92 145 93.84 145 0 145 C0 97.15 0 49.3 0 0 Z " fill="#FEF8E5" transform="translate(0,0)"/>
    <path d="M0 0 C6.25116515 3.66966547 9.35662667 7.62350658 12.109375 14.30078125 C14.45705542 19.73482036 17.61607416 23.05456099 21.89453125 27.0625 C25.44934223 30.54881751 26.72719588 33.54897087 27.359375 38.42578125 C26.66505956 44.17868065 24.63874067 48.37793778 20.484375 52.42578125 C14.3779077 56.29817515 8.60018045 57.03208434 1.51953125 55.546875 C-1.41708526 54.98604749 -4.15236714 54.9182256 -7.140625 54.92578125 C-8.16285156 54.92320312 -9.18507812 54.920625 -10.23828125 54.91796875 C-12.71446606 55.03377382 -14.70935704 55.38914244 -17.078125 56.05078125 C-23.066386 56.62657558 -27.21267385 55.44871778 -32.078125 52.05078125 C-36.07249938 48.16880269 -39.18391483 44.687665 -39.515625 38.98828125 C-39.44048518 33.14615997 -36.8385271 29.36248956 -33.078125 25.05078125 C-31.89405343 24.04241062 -30.68606015 23.06128322 -29.453125 22.11328125 C-25.69789199 19.15511083 -24.66324516 15.93539899 -23.09375 11.51953125 C-20.89819039 6.18263251 -17.61701399 2.91815504 -12.640625 0.11328125 C-8.05816983 -1.25341591 -4.49802285 -2.05454803 0 0 Z " fill="#D36617" transform="translate(150.078125,73.94921875)"/>
    <path d="M0 0 C3.82465693 1.86983228 6.38498975 3.59914332 8.125 7.5625 C9.94643458 14.71813585 9.63365135 21.45942757 6 28 C3.375 30.9375 3.375 30.9375 1 33 C0.67 33.33 0.34 33.66 0 34 C-4.70852902 34.6809856 -7.98138069 34.75289253 -11.875 31.875 C-16.30867826 25.87649412 -17.88997439 21.38302694 -17 14 C-15.85841971 8.35380557 -13.4597096 4.5980241 -8.8984375 1.06640625 C-5.78236408 -0.68398067 -3.46521621 -0.57753603 0 0 Z " fill="#D1661A" transform="translate(165,36)"/>
    <path d="M0 0 C4.00858172 0.97223064 6.55269034 3.34829388 9.09375 6.5078125 C11.9482132 11.42720653 13.04482354 16.86477615 12.09375 22.5078125 C10.76273688 26.901587 9.25621 30.44222417 5.84375 33.5703125 C2.13530109 34.83455645 -1.04108041 35.33102306 -4.90625 34.5078125 C-9.10126022 31.43147167 -11.72205207 27.57507807 -12.90625 22.5078125 C-13.70945817 14.32169091 -13.02043503 8.89073957 -8.21875 2.1328125 C-5.48640743 0.21278799 -3.33205281 -0.18649549 0 0 Z " fill="#D06519" transform="translate(126.90625,35.4921875)"/>
    <path d="M0 0 C2.69990662 1.79993774 4.5418865 3.083773 6 6 C6.82263336 12.87486453 6.24352641 18.23168761 2.484375 24.11328125 C0.25492369 26.9470312 -1.69420411 28.54544981 -5 30 C-8.625 30.0625 -8.625 30.0625 -12 29 C-15.45143417 25.45773862 -17.15208828 22.71772148 -17.3125 17.8125 C-17.21857159 11.95136693 -15.28063744 8.4960003 -11.38671875 4.234375 C-7.76031066 0.79290568 -5.18549869 -1.12728232 0 0 Z " fill="#D16618" transform="translate(191,60)"/>
    <path d="M0 0 C4.78632831 1.27635422 7.58133319 3.21725047 10.75 7 C13.47258054 11.75249042 14.45745037 16.5425257 13.75 22 C11.72333762 25.70390021 10.26955484 27.65363011 6.75 30 C2.57166761 30.64996282 1.09443798 30.23637901 -2.4375 27.8125 C-7.37179656 22.87820344 -9.35632481 18.47088214 -9.5 11.5625 C-9.45414039 7.57926542 -8.83502241 5.15947184 -6.25 2 C-3.25 0 -3.25 0 0 0 Z " fill="#D06619" transform="translate(99.25,60)"/>
    <path d="M0 0 C0.042721 1.66611905 0.04063832 3.33382885 0 5 C-1.8537008 6.8537008 -4.54698413 6.28143666 -7.03295898 6.44335938 C-20.71810776 7.40236387 -33.95277433 10.80657037 -46.62524414 16.09570312 C-49.24009439 17.09142692 -51.22604595 17.15851166 -54 17 C-53.78125 14.6328125 -53.78125 14.6328125 -53 12 C-51.03125 10.7421875 -51.03125 10.7421875 -48.5 9.875 C-47.58992187 9.55273438 -46.67984375 9.23046875 -45.7421875 8.8984375 C-44.83726562 8.60195312 -43.93234375 8.30546875 -43 8 C-42.26007813 7.74476562 -41.52015625 7.48953125 -40.7578125 7.2265625 C-39.31530841 6.73516001 -37.86847822 6.25630626 -36.41796875 5.7890625 C-34.62122399 5.20272576 -32.83337706 4.58897788 -31.05078125 3.9609375 C-20.4113569 0.24982085 -11.2126583 -0.14173304 0 0 Z " fill="#C86523" transform="translate(241,87)"/>
    <path d="M0 0 C19.70723519 -1.00775635 36.04407326 5.67251845 54 13 C53.67 14.65 53.34 16.3 53 18 C49.40174941 17.63094866 46.51994226 16.84089136 43.3125 15.25 C31.41417683 9.77077219 18.19309463 7.55153081 5.24609375 6.359375 C2 6 2 6 0 5 C0 3.35 0 1.7 0 0 Z " fill="#C46222" transform="translate(46,87)"/>
    <path d="M0 0 C2.2157737 0.01839529 4.43113003 0.02050798 6.64697266 0.02026367 C23.76539469 0.0790294 23.76539469 0.0790294 28.45556641 3.20581055 C28.12556641 4.52581055 27.79556641 5.84581055 27.45556641 7.20581055 C26.21419922 7.0975293 26.21419922 7.0975293 24.94775391 6.98706055 C16.94396898 6.36473602 8.98429867 6.0969298 0.95556641 6.08081055 C0.02470215 6.07629883 -0.90616211 6.07178711 -1.86523438 6.06713867 C-6.86424193 6.07794539 -11.59567736 6.41921225 -16.54443359 7.20581055 C-19.2238284 7.3133304 -21.86075408 7.25289264 -24.54443359 7.20581055 C-24.87443359 5.55581055 -25.20443359 3.90581055 -25.54443359 2.20581055 C-17.02630605 0.18613092 -8.69943266 -0.07471072 0 0 Z " fill="#C4611E" transform="translate(70.54443359375,109.794189453125)"/>
    <path d="M0 0 C1.29035156 -0.01224609 2.58070313 -0.02449219 3.91015625 -0.03710938 C12.25091242 -0.0497087 20.17599456 0.65355421 28.375 2.1875 C28.87 4.6625 28.87 4.6625 29.375 7.1875 C27.66675867 7.21485618 25.95838595 7.23405506 24.25 7.25 C23.29867187 7.26160156 22.34734375 7.27320312 21.3671875 7.28515625 C18.375 7.1875 18.375 7.1875 15.703125 6.6875 C11.82783044 6.10529612 8.03972566 6.0623944 4.1328125 6.08984375 C2.98025467 6.09196617 2.98025467 6.09196617 1.80441284 6.09413147 C-0.63043239 6.09969317 -3.06518294 6.1122384 -5.5 6.125 C-7.15885283 6.13001996 -8.81770712 6.13458199 -10.4765625 6.13867188 C-14.5260777 6.14965002 -18.57552284 6.16688794 -22.625 6.1875 C-22.295 4.5375 -21.965 2.8875 -21.625 1.1875 C-14.38286452 0.03489787 -7.31823062 0.00359089 0 0 Z " fill="#C26322" transform="translate(211.625,109.8125)"/>
    <path d="M0 0 C1.43859375 -0.00580078 1.43859375 -0.00580078 2.90625 -0.01171875 C8.04605362 -0.00465858 12.93551096 0.23871442 18 1.125 C18.495 3.6 18.495 3.6 19 6.125 C12.56480384 6.33446389 7.10070838 6.24157229 1 4.125 C-1.77933652 3.32003063 -4.21840578 3.00544247 -7.109375 3.02734375 C-8.24052734 3.03217773 -8.24052734 3.03217773 -9.39453125 3.03710938 C-10.17183594 3.04548828 -10.94914063 3.05386719 -11.75 3.0625 C-12.54277344 3.06701172 -13.33554688 3.07152344 -14.15234375 3.07617188 C-16.10159508 3.08791435 -18.05080738 3.10584854 -20 3.125 C-15.39059781 -1.48440219 -6.12269837 -0.0246883 0 0 Z " fill="#CE6820" transform="translate(222,110.875)"/>
    <path d="M0 0 C9.17432415 -0.69240182 17.03011674 2.69195499 25 7 C24.67 8.32 24.34 9.64 24 11 C23.45214844 10.82984375 22.90429688 10.6596875 22.33984375 10.484375 C14.61194598 8.12202576 6.81440711 6.05258427 -1 4 C-0.67 2.68 -0.34 1.36 0 0 Z " fill="#CA6B28" transform="translate(187,124)"/>
    <path d="M0 0 C-0.125 1.875 -0.125 1.875 -1 4 C-3.65234375 5.1171875 -3.65234375 5.1171875 -7 6 C-8.61068359 6.52980469 -8.61068359 6.52980469 -10.25390625 7.0703125 C-11.34574219 7.41835937 -12.43757813 7.76640625 -13.5625 8.125 C-14.65691406 8.47820312 -15.75132813 8.83140625 -16.87890625 9.1953125 C-19.75413131 9.93660957 -22.05288058 10.16464354 -25 10 C-24.90234375 8.203125 -24.90234375 8.203125 -24 6 C-16.54174743 1.47733224 -8.74592847 -1.08820308 0 0 Z " fill="#C96520" transform="translate(100,124)"/>
    <path d="M0 0 C1.24523437 0.01804687 2.49046875 0.03609375 3.7734375 0.0546875 C5.18496094 0.08949219 5.18496094 0.08949219 6.625 0.125 C6.667721 1.79111905 6.66563832 3.45882885 6.625 5.125 C5.625 6.125 5.625 6.125 2.859375 6.2578125 C1.13460937 6.25394531 1.13460937 6.25394531 -0.625 6.25 C-2.33429688 6.25386719 -2.33429688 6.25386719 -4.078125 6.2578125 C-6.97544376 6.14109587 -9.56108964 5.79145245 -12.375 5.125 C-12.705 4.135 -13.035 3.145 -13.375 2.125 C-8.75130977 0.31820413 -4.94971347 -0.09339082 0 0 Z " fill="#C9631E" transform="translate(234.375,86.875)"/>
    <path d="M0 0 C6.90352555 -0.51137226 11.74827614 1.13035626 18 4 C17.67 5.65 17.34 7.3 17 9 C10.77012202 8.49487476 5.54525767 5.67395877 0 3 C0 2.01 0 1.02 0 0 Z " fill="#C7601B" transform="translate(82,96)"/>
    <path d="M0 0 C1.45169732 2.90339465 0.72348441 4.90874842 0 8 C-0.99 8.495 -0.99 8.495 -2 9 C-2.52134831 15.03015171 -2.52134831 15.03015171 -0.5 20.5625 C3.14334551 22.65742367 5.83456807 22.27769546 10 22 C8.9375 23.5625 8.9375 23.5625 7 25 C3.5625 25 3.5625 25 0 24 C-4.31902304 19.56731845 -5.33567415 16.39870024 -5.296875 10.39453125 C-4.79728676 6.36495769 -2.89472391 2.89472391 0 0 Z " fill="#C16B2F" transform="translate(179,65)"/>
    <path d="M0 0 C0.33 1.32 0.66 2.64 1 4 C1.97030151 3.8928064 1.97030151 3.8928064 2.96020508 3.78344727 C10.22447357 3.04417187 17.3898933 2.87940515 24.6875 2.9375 C26.33008789 2.94426758 26.33008789 2.94426758 28.00585938 2.95117188 C30.67063309 2.96280844 33.33528517 2.97915436 36 3 C36 3.33 36 3.66 36 4 C34.04320312 4.07347656 34.04320312 4.07347656 32.046875 4.1484375 C15.91762051 3.61324661 15.91762051 3.61324661 2 9 C1.67 8.01 1.34 7.02 1 6 C-0.32 6.33 -1.64 6.66 -3 7 C-2.38722388 4.03824877 -1.74627478 2.61941217 0 0 Z " fill="#FCEBCD" transform="translate(188,112)"/>
    <path d="M0 0 C0 0.66 0 1.32 0 2 C-1.56116819 2.33951619 -3.12401338 2.67132544 -4.6875 3 C-5.99267578 3.2784375 -5.99267578 3.2784375 -7.32421875 3.5625 C-11.84108077 4.30102342 -14.10370054 4.59753297 -18 2 C-18 1.34 -18 0.68 -18 0 C-11.84098757 -1.23180249 -6.21324498 -0.73030908 0 0 Z " fill="#CE6B25" transform="translate(67,111)"/>
    <path d="M0 0 C6.19887485 -0.37952295 10.4477112 0.1647887 16 3 C14.375 4.625 14.375 4.625 12 6 C9.1875 5.25 9.1875 5.25 6 4 C3.67305036 3.62468554 1.34023315 3.28082798 -1 3 C-0.67 2.01 -0.34 1.02 0 0 Z " fill="#C96117" transform="translate(67,91)"/>
    <path d="M0 0 C0.90105469 0.00902344 1.80210938 0.01804687 2.73046875 0.02734375 C3.41753906 0.03894531 4.10460937 0.05054687 4.8125 0.0625 C4.49609375 1.98046875 4.49609375 1.98046875 3.8125 4.0625 C0.875 5.375 0.875 5.375 -2.1875 6.0625 C-2.8475 5.7325 -3.5075 5.4025 -4.1875 5.0625 C-3.8575 4.7325 -3.5275 4.4025 -3.1875 4.0625 C-5.4975 3.7325 -7.8075 3.4025 -10.1875 3.0625 C-7.02470604 -0.10029396 -4.26614261 -0.05540445 0 0 Z " fill="#C76824" transform="translate(95.1875,123.9375)"/>
    <path d="M0 0 C-0.969375 0.433125 -1.93875 0.86625 -2.9375 1.3125 C-6.27731765 2.7014861 -6.27731765 2.7014861 -7 6 C-6.30132812 5.84402344 -5.60265625 5.68804687 -4.8828125 5.52734375 C-3.51769531 5.23537109 -3.51769531 5.23537109 -2.125 4.9375 C-1.22007813 4.74027344 -0.31515625 4.54304687 0.6171875 4.33984375 C3 4 3 4 5 5 C5 5.99 5 6.98 5 8 C0.48382401 8.07654536 -3.59085217 8.10228696 -8 7 C-8 5.02 -8 3.04 -8 1 C-4.93251126 -0.86240388 -3.40254489 -1.2151946 0 0 Z " fill="#F3E0C5" transform="translate(82,128)"/>
    <path d="M0 0 C0.33 0 0.66 0 1 0 C1.0270043 1.45823212 1.04639787 2.91660675 1.0625 4.375 C1.07410156 5.18710938 1.08570313 5.99921875 1.09765625 6.8359375 C1 9 1 9 0 11 C-0.66 11 -1.32 11 -2 11 C-2.2475 11.804375 -2.495 12.60875 -2.75 13.4375 C-4 16 -4 16 -6.125 16.8125 C-6.74375 16.874375 -7.3625 16.93625 -8 17 C-8 17.66 -8 18.32 -8 19 C-9.98 19 -11.96 19 -14 19 C-11 17 -11 17 -8.0625 15.375 C-3.46969619 11.81323378 -1.6416967 7.56678679 -0.25 2 C-0.1675 1.34 -0.085 0.68 0 0 Z " fill="#FAE6C7" transform="translate(177,111)"/>
    <path d="M0 0 C5.875 0.875 5.875 0.875 7 2 C8.51469448 2.23192865 10.03754562 2.41215238 11.5625 2.5625 C12.38878906 2.64628906 13.21507812 2.73007813 14.06640625 2.81640625 C14.70449219 2.87699219 15.34257813 2.93757813 16 3 C16 3.33 16 3.66 16 4 C10.91913204 4.84681133 6.15171623 5.09038099 1 5 C0.67 3.35 0.34 1.7 0 0 Z " fill="#CB7234" transform="translate(45,112)"/>
    <path d="M0 0 C0 0.99 0 1.98 0 3 C-2.64458379 4.32229189 -4.67761301 4.09677194 -7.625 4.0625 C-8.62789062 4.05347656 -9.63078125 4.04445313 -10.6640625 4.03515625 C-11.43492188 4.02355469 -12.20578125 4.01195313 -13 4 C-13 3.34 -13 2.68 -13 2 C-8.50343896 -0.24828052 -4.92127034 -0.16682272 0 0 Z " fill="#CE641A" transform="translate(61,89)"/>
    <path d="M0 0 C-0.33 0.99 -0.66 1.98 -1 3 C1.31 3.66 3.62 4.32 6 5 C6 5.33 6 5.66 6 6 C2.37 6 -1.26 6 -5 6 C-4.67 5.01 -4.34 4.02 -4 3 C-4.99 3 -5.98 3 -7 3 C-7 2.34 -7 1.68 -7 1 C-4.53721199 -0.231394 -2.7204945 -0.07159196 0 0 Z " fill="#D2793A" transform="translate(224,88)"/>
    <path d="M0 0 C1.60379341 -0.05416188 3.20811406 -0.09286638 4.8125 -0.125 C5.70582031 -0.14820312 6.59914063 -0.17140625 7.51953125 -0.1953125 C10 0 10 0 13 2 C11.84371094 2.19916016 11.84371094 2.19916016 10.6640625 2.40234375 C9.66117188 2.57894531 8.65828125 2.75554687 7.625 2.9375 C6.12839844 3.19853516 6.12839844 3.19853516 4.6015625 3.46484375 C2.03090344 3.87712062 2.03090344 3.87712062 0 5 C-2.3329866 5.04022391 -4.66706666 5.04320247 -7 5 C-7 4.67 -7 4.34 -7 4 C-3.535 3.505 -3.535 3.505 0 3 C0 2.01 0 1.02 0 0 Z " fill="#CF7737" transform="translate(61,89)"/>
    <path d="M0 0 C0.90492187 0.02320312 1.80984375 0.04640625 2.7421875 0.0703125 C4.10730469 0.09738281 4.10730469 0.09738281 5.5 0.125 C6.19867188 0.14820312 6.89734375 0.17140625 7.6171875 0.1953125 C7.9471875 1.1853125 8.2771875 2.1753125 8.6171875 3.1953125 C4.3271875 2.8653125 0.0371875 2.5353125 -4.3828125 2.1953125 C-2.3828125 0.1953125 -2.3828125 0.1953125 0 0 Z " fill="#D56413" transform="translate(88.3828125,111.8046875)"/>
    <path d="M0 0 C0.33 0 0.66 0 1 0 C1.08131463 1.43655854 1.13933559 2.8744483 1.1875 4.3125 C1.22230469 5.11300781 1.25710937 5.91351563 1.29296875 6.73828125 C0.93801608 9.47851584 0.10633718 10.29171079 -2 12 C-3.40907283 9.18185434 -2.50872691 7.82722796 -1.5625 4.875 C-1.27503906 3.96492188 -0.98757812 3.05484375 -0.69140625 2.1171875 C-0.46324219 1.41851562 -0.23507813 0.71984375 0 0 Z " fill="#F4DFC0" transform="translate(177,111)"/>
    <path d="M0 0 C0.515625 0.391875 1.03125 0.78375 1.5625 1.1875 C-1.05861184 2.59166706 -3.46913146 3.8044847 -6.4375 4.1875 C-7.4275 3.5275 -8.4175 2.8675 -9.4375 2.1875 C-3.0375 -1.0125 -3.0375 -1.0125 0 0 Z " fill="#CE7234" transform="translate(85.4375,94.8125)"/>
    <path d="M0 0 C2.97 0.495 2.97 0.495 6 1 C3.4345406 3.5654594 1.52313332 3.54046087 -2 4 C-1.34 2.68 -0.68 1.36 0 0 Z " fill="#D25F11" transform="translate(195,97)"/>
    <path d="M0 0 C0 0.66 0 1.32 0 2 C-2.95664519 3.4783226 -5.74229737 3.06032783 -9 3 C-6.01800145 0.01800145 -4.21244839 0 0 0 Z " fill="#CA783D" transform="translate(94,124)"/>
    <path d="M0 0 C0.99 0.33 1.98 0.66 3 1 C3 1.99 3 2.98 3 4 C3.66 4 4.32 4 5 4 C5.66 5.65 6.32 7.3 7 9 C3.26115668 6.34345343 1.35021826 4.41889613 0 0 Z " fill="#C06A2D" transform="translate(112,117)"/>
    <path d="M0 0 C0.99 0.33 1.98 0.66 3 1 C0.525 4.465 0.525 4.465 -2 8 C-2.33 7.01 -2.66 6.02 -3 5 C-1.5625 2.3125 -1.5625 2.3125 0 0 Z " fill="#F9E4CA" transform="translate(179,61)"/>
    <path d="M0 0 C1.32 0.99 2.64 1.98 4 3 C3.01 3.66 2.02 4.32 1 5 C0.34 3.68 -0.32 2.36 -1 1 C-0.67 0.67 -0.34 0.34 0 0 Z M-1 5 C-0.34 5 0.32 5 1 5 C1 5.66 1 6.32 1 7 C0.34 7 -0.32 7 -1 7 C-1 6.34 -1 5.68 -1 5 Z " fill="#FAEED9" transform="translate(117,125)"/>
    <path d="M0 0 C2.97 0.495 2.97 0.495 6 1 C6.33 1.99 6.66 2.98 7 4 C4.69 3.34 2.38 2.68 0 2 C0 1.34 0 0.68 0 0 Z " fill="#D6630F" transform="translate(91,99)"/>
    <path d="M0 0 C0.99 0.33 1.98 0.66 3 1 C3 1.99 3 2.98 3 4 C3.66 4 4.32 4 5 4 C5.66 5.65 6.32 7.3 7 9 C3.26115668 6.34345343 1.35021826 4.41889613 0 0 Z " fill="#C06A2D" transform="translate(112,117)"/>
    <path d="M0 0 C0.99 0.33 1.98 0.66 3 1 C0.525 4.465 0.525 4.465 -2 8 C-2.33 7.01 -2.66 6.02 -3 5 C-1.5625 2.3125 -1.5625 2.3125 0 0 Z " fill="#F9E4CA" transform="translate(179,61)"/>
    <path d="M0 0 C1.32 0.99 2.64 1.98 4 3 C3.01 3.66 2.02 4.32 1 5 C0.34 3.68 -0.32 2.36 -1 1 C-0.67 0.67 -0.34 0.34 0 0 Z M-1 5 C-0.34 5 0.32 5 1 5 C1 5.66 1 6.32 1 7 C0.34 7 -0.32 7 -1 7 C-1 6.34 -1 5.68 -1 5 Z " fill="#FAEED9" transform="translate(117,125)"/>
    <path d="M0 0 C2.97 0.495 2.97 0.495 6 1 C6.33 1.99 6.66 2.98 7 4 C4.69 3.34 2.38 2.68 0 2 C0 1.34 0 0.68 0 0 Z " fill="#D6630F" transform="translate(91,99)"/>
    <path d="M0 0 C3.3 0.33 6.6 0.66 10 1 C10 1.99 10 2.98 10 4 C10.99 4 11.98 4 13 4 C12.67 4.66 12.34 5.32 12 6 C8.04 4.35 4.08 2.7 0 1 C0 0.67 0 0.34 0 0 Z " fill="#F6DFC0" transform="translate(198,125)"/>
    <path d="M0 0 C0.66 0.33 1.32 0.66 2 1 C1.25 2.9375 1.25 2.9375 0 5 C-2.125 5.75 -2.125 5.75 -4 6 C-4 5.34 -4 4.68 -4 4 C-4.66 3.67 -5.32 3.34 -6 3 C-4.03533587 1.93224776 -2.03144641 0.93446535 0 0 Z " fill="#D07331" transform="translate(193,97)"/>
    <path d="M0 0 C0.33 1.32 0.66 2.64 1 4 C2.98 4 4.96 4 7 4 C7 4.33 7 4.66 7 5 C5.72125 5.144375 4.4425 5.28875 3.125 5.4375 C0.74307106 5.70642746 -0.84452691 5.92226346 -3 7 C-2.38722388 4.03824877 -1.74627478 2.61941217 0 0 Z " fill="#ECD3B3" transform="translate(188,112)"/>
    <path d="M0 0 C0.33 0 0.66 0 1 0 C1 1.65 1 3.3 1 5 C1.66 5.33 2.32 5.66 3 6 C1.68 6.33 0.36 6.66 -1 7 C-1.0825 7.5775 -1.165 8.155 -1.25 8.75 C-2.20531013 11.6159304 -3.78469173 12.9990764 -6 15 C-6.99 14.67 -7.98 14.34 -9 14 C-7.6078125 13.0409375 -7.6078125 13.0409375 -6.1875 12.0625 C-2.22388903 8.82039741 -1.20061724 4.83406415 0 0 Z " fill="#C26B2E" transform="translate(127,84)"/>
    <path d="M0 0 C1.65 0.33 3.3 0.66 5 1 C4.67 2.32 4.34 3.64 4 5 C0.7 4.01 -2.6 3.02 -6 2 C-2 1 -2 1 0 2 C0 1.34 0 0.68 0 0 Z " fill="#C46B2F" transform="translate(207,130)"/>
    <path d="M0 0 C0.66 0.33 1.32 0.66 2 1 C-1.33562767 5.51290803 -3.33289301 7.68206814 -9 9 C-9.66 8.34 -10.32 7.68 -11 7 C-9.9275 6.54625 -8.855 6.0925 -7.75 5.625 C-5.11937683 4.49911463 -2.53999604 3.32079794 0 2 C0 1.34 0 0.68 0 0 Z " fill="#C2682B" transform="translate(173,120)"/>
    <path d="M0 0 C0.99 0.33 1.98 0.66 3 1 C2.67 2.32 2.34 3.64 2 5 C-2.95 4.67 -7.9 4.34 -13 4 C-13 3.67 -13 3.34 -13 3 C-6.565 2.505 -6.565 2.505 0 2 C0 1.34 0 0.68 0 0 Z " fill="#C9824D" transform="translate(96,112)"/>
    <path d="M0 0 C2.31 0.33 4.62 0.66 7 1 C6.67 1.99 6.34 2.98 6 4 C3.69 4.33 1.38 4.66 -1 5 C-0.67 3.35 -0.34 1.7 0 0 Z " fill="#D5691E" transform="translate(213,90)"/>
    <path d="M0 0 C0.598125 0.763125 1.19625 1.52625 1.8125 2.3125 C3.46959332 4.3483575 5.10297674 6.1978279 7 8 C5.02 8.99 5.02 8.99 3 10 C1.5 8.9375 1.5 8.9375 0 7 C-0.1875 3.3125 -0.1875 3.3125 0 0 Z " fill="#F7E9CD" transform="translate(174,82)"/>
    <path d="M0 0 C2 2 2 2 2.3125 5.3125 C1.98833177 9.13768511 1.29202778 10.97452333 -1 14 C-1.33 14 -1.66 14 -2 14 C-2 12.35 -2 10.7 -2 9 C-1.34 9 -0.68 9 0 9 C0 6.03 0 3.06 0 0 Z " fill="#C26628" transform="translate(111,73)"/>
    <path d="M0 0 C3.96 0 7.92 0 12 0 C10.68 0.33 9.36 0.66 8 1 C8 1.66 8 2.32 8 3 C5.6875 3.1875 5.6875 3.1875 3 3 C2.01 2.01 1.02 1.02 0 0 Z " fill="#D46115" transform="translate(49,112)"/>
    <path d="M0 0 C2.64 0.33 5.28 0.66 8 1 C7.67 1.99 7.34 2.98 7 4 C4.36 3.67 1.72 3.34 -1 3 C-0.67 2.01 -0.34 1.02 0 0 Z " fill="#D66513" transform="translate(67,91)"/>
  </g>
</svg>